<?xml version="1.0" standalone="no"?>
<!DOCTYPE svg PUBLIC "-//W3C//DTD SVG 20010904//EN"
 "http://www.w3.org/TR/2001/REC-SVG-20010904/DTD/svg10.dtd">
<svg version="1.0" xmlns="http://www.w3.org/2000/svg"
 width="1200.000000pt" height="1200.000000pt" viewBox="0 0 1200.000000 1200.000000"
 preserveAspectRatio="xMidYMid meet">
<metadata>
Created by potrace 1.16, written by Peter Selinger 2001-2019
</metadata>
<g transform="translate(0.000000,1200.000000) scale(0.100000,-0.100000)"
fill="#000000" stroke="none">
<path d="M5542 7842 c-10 -7 -14 -108 -18 -453 -5 -378 -4 -459 10 -548 l16
-103 -29 -27 c-18 -17 -36 -49 -45 -82 -40 -139 -206 -848 -206 -881 0 -27 6
-40 20 -48 12 -7 131 -9 342 -8 l323 3 3 33 3 34 -88 -6 c-48 -3 -180 -8 -293
-12 -227 -6 -266 0 -257 39 2 12 43 189 91 392 89 382 120 500 135 509 4 3 27
-90 50 -207 66 -336 92 -451 103 -464 15 -18 59 -16 87 3 18 13 22 23 17 48
-3 17 -42 420 -87 896 -45 476 -86 871 -91 878 -12 13 -66 16 -86 4z"/>
<path d="M7390 5810 l0 -100 1430 0 1430 0 0 100 0 100 -1430 0 -1430 0 0
-100z"/>
<path d="M1750 5790 l0 -100 1430 0 1430 0 0 100 0 100 -1430 0 -1430 0 0
-100z"/>
<path d="M6450 5811 c0 -33 -4 -51 -12 -52 -7 -1 -50 -1 -95 1 l-83 2 0 -33 0
-34 235 0 235 0 0 31 c0 72 -82 125 -202 132 l-78 5 0 -52z"/>
<path d="M4953 5151 c-148 -51 -225 -163 -210 -306 15 -146 101 -217 321 -262
177 -36 230 -71 230 -149 0 -65 -84 -117 -189 -117 -76 0 -124 15 -201 64 -72
47 -113 50 -149 14 -19 -18 -25 -35 -25 -66 0 -36 6 -47 42 -82 83 -79 191
-111 357 -105 93 3 114 7 171 34 131 62 182 137 181 267 -1 176 -75 240 -346
298 -156 33 -205 67 -205 139 1 57 42 93 126 109 67 13 132 -1 231 -49 92 -45
120 -45 153 -3 85 108 -95 233 -333 233 -71 -1 -118 -6 -154 -19z"/>
<path d="M5946 5159 c-111 -27 -236 -127 -293 -234 -48 -92 -63 -156 -63 -270
0 -219 96 -383 276 -472 l78 -38 135 0 136 0 79 38 c379 181 379 763 0 944
-76 36 -84 38 -194 40 -63 1 -132 -2 -154 -8z m247 -191 c107 -46 179 -171
179 -313 0 -191 -126 -338 -292 -338 -164 0 -290 146 -290 338 0 169 93 299
237 334 48 12 105 4 166 -21z"/>
<path d="M3769 5141 l-24 -19 -3 -461 -3 -461 25 -25 c36 -36 113 -36 147 1
23 25 24 31 27 210 l3 184 220 0 219 0 0 -185 c0 -184 0 -186 25 -210 35 -36
112 -35 146 1 l24 26 3 416 c2 229 0 436 -3 460 -9 58 -36 82 -94 82 -91 -1
-101 -25 -101 -244 l0 -176 -219 0 -220 0 -3 184 c-3 179 -4 185 -27 210 -31
33 -106 37 -142 7z"/>
<path d="M6755 5135 l-25 -24 0 -456 0 -456 25 -24 c32 -33 100 -35 139 -4
l26 20 0 190 0 189 178 0 c174 0 179 1 200 23 31 33 30 96 -1 125 -22 21 -32
22 -200 22 l-177 0 0 125 0 125 206 0 c113 0 213 4 223 10 25 13 45 64 37 95
-4 14 -15 34 -26 45 -19 19 -35 20 -300 20 l-281 0 -24 -25z"/>
<path d="M7522 5137 c-31 -33 -30 -96 1 -125 21 -20 34 -22 155 -22 l132 0 0
-395 0 -396 25 -24 c19 -20 34 -25 75 -25 41 0 56 5 75 25 l25 24 0 396 0 395
131 0 c72 0 138 4 148 10 10 5 24 23 31 39 15 36 -1 96 -30 111 -11 6 -161 10
-383 10 l-364 0 -21 -23z"/>
</g>
</svg>
