<?xml version="1.0" standalone="no"?>
<!DOCTYPE svg PUBLIC "-//W3C//DTD SVG 20010904//EN"
 "http://www.w3.org/TR/2001/REC-SVG-20010904/DTD/svg10.dtd">
<svg version="1.0" xmlns="http://www.w3.org/2000/svg"
 width="1200.000000pt" height="1200.000000pt" viewBox="0 0 1200.000000 1200.000000"
 preserveAspectRatio="xMidYMid meet">
<metadata>
Created by potrace 1.16, written by Peter Selinger 2001-2019
</metadata>
<g transform="translate(0.000000,1200.000000) scale(0.100000,-0.100000)"
fill="#000000" stroke="none">
<path d="M3730 7350 l0 -2690 2290 0 2290 0 0 2690 0 2690 -2290 0 -2290 0 0
-2690z m4440 0 l0 -2560 -2155 0 -2155 0 0 2560 0 2560 2155 0 2155 0 0 -2560z"/>
<path d="M4720 9621 c-93 -8 -164 -42 -202 -97 -23 -33 -27 -49 -27 -104 0
-36 2 -324 5 -640 4 -401 2 -651 -7 -825 -9 -181 -12 -565 -10 -1387 2 -838
-1 -1172 -10 -1272 -15 -167 -7 -204 49 -240 59 -38 117 -44 447 -50 343 -7
334 -8 387 59 26 34 23 -79 34 1123 l5 633 397 -6 c218 -3 497 -8 618 -11
l222 -6 7 -222 c7 -228 0 -1247 -10 -1371 -8 -92 11 -129 80 -165 49 -25 53
-25 385 -33 372 -9 372 -9 421 56 24 32 24 34 21 242 -2 116 2 255 7 310 6 59
12 528 15 1137 2 570 7 1041 10 1046 3 5 6 384 6 843 2 921 5 872 -62 936 -33
32 -37 33 -168 44 -153 13 -480 6 -537 -11 -54 -16 -114 -60 -136 -98 -16 -27
-19 -49 -16 -120 6 -203 3 -1399 -5 -1524 l-8 -138 -402 0 c-220 0 -499 3
-620 7 l-218 6 6 61 c3 34 6 423 7 866 1 779 0 806 -19 850 -32 73 -62 89
-199 100 -128 10 -353 11 -473 1z"/>
<path d="M4030 3316 c-155 -44 -219 -104 -273 -256 -36 -101 -38 -215 -4 -292
47 -105 181 -197 382 -263 95 -31 192 -80 205 -104 17 -32 12 -101 -10 -136
-36 -59 -120 -80 -213 -54 -52 14 -82 51 -102 126 -26 96 -38 103 -162 103
-145 0 -158 -15 -132 -155 27 -144 105 -252 227 -312 l76 -38 165 0 c160 0
168 1 223 27 110 52 173 133 213 273 22 76 14 209 -16 271 -35 72 -98 135
-168 166 -66 31 -191 78 -273 103 -25 9 -68 30 -95 48 -44 29 -48 36 -51 76
-8 113 76 169 211 141 70 -14 100 -43 121 -119 9 -32 23 -64 31 -71 20 -17
182 -25 217 -11 15 5 35 22 44 36 16 24 16 31 0 103 -21 94 -48 151 -103 212
-61 68 -109 97 -198 120 -92 23 -244 26 -315 6z"/>
<path d="M5868 3311 c-162 -52 -234 -142 -280 -351 -20 -92 -22 -132 -22 -330
0 -222 3 -258 40 -403 32 -126 101 -214 209 -264 54 -25 73 -28 190 -31 203
-6 292 23 387 127 109 120 128 202 128 566 0 291 -10 373 -56 468 -58 121
-135 184 -261 216 -105 27 -254 28 -335 2z m236 -271 c99 -23 117 -83 121
-400 2 -204 0 -244 -16 -300 -25 -89 -40 -107 -106 -126 -99 -29 -175 -7 -216
63 -51 88 -48 625 4 710 36 57 113 77 213 53z"/>
<path d="M1886 3297 c-17 -12 -18 -54 -23 -669 l-5 -655 23 -17 c18 -12 47
-16 131 -16 101 0 108 1 120 23 6 12 12 51 13 87 0 36 1 145 3 243 l2 177 176
0 176 0 -2 -242 c-1 -134 -1 -248 -1 -254 2 -22 55 -34 156 -34 72 0 106 4
112 13 4 6 9 48 11 92 6 165 12 1191 7 1212 -11 46 -29 53 -144 53 -92 0 -110
-3 -124 -18 -15 -16 -17 -50 -17 -275 l0 -257 -175 0 -175 0 0 258 c0 314 11
292 -141 292 -71 0 -111 -4 -123 -13z"/>
<path d="M7519 3288 c-9 -17 -14 -189 -17 -669 l-4 -646 23 -17 c29 -20 204
-23 230 -3 31 24 37 79 36 320 l-2 237 252 0 c230 0 253 2 261 18 16 29 25
207 13 231 -11 20 -18 21 -269 21 l-257 0 3 131 3 131 249 -3 c179 -2 253 1
263 9 10 8 16 45 20 119 5 91 4 110 -10 125 -15 17 -45 18 -399 18 l-383 0
-12 -22z"/>
<path d="M9342 3298 c-15 -15 -16 -221 -2 -249 10 -17 23 -19 151 -19 l140 0
-6 -337 c-11 -725 -12 -693 7 -724 l18 -29 108 0 c150 0 147 -4 147 194 0 83
1 318 3 523 l2 372 132 3 133 3 14 30 c20 42 16 203 -6 228 -15 16 -48 17
-423 17 -302 0 -409 -3 -418 -12z"/>
</g>
</svg>
